<svg width="31" height="26" viewBox="0 0 31 26" fill="none" xmlns="http://www.w3.org/2000/svg">
<path d="M30.524 3.58268C29.4107 4.07601 28.2147 4.40934 26.9574 4.56001C28.24 3.79201 29.224 2.57334 29.688 1.12268C28.488 1.83468 27.1587 2.35201 25.744 2.62934C24.6107 1.42401 22.9974 0.669342 21.2107 0.669342C17.7814 0.669342 15 3.45068 15 6.88268C15 7.36801 15.056 7.84001 15.16 8.29601C9.99603 8.03601 5.42136 5.56268 2.35736 1.80534C1.82403 2.72534 1.51736 3.79201 1.51736 4.92801C1.51736 7.08268 2.61469 8.98534 4.28003 10.0987C3.26136 10.0653 2.30403 9.78668 1.46669 9.32134V9.40134C1.46669 12.4107 3.60669 14.9213 6.44936 15.492C5.92669 15.6333 5.37869 15.708 4.81336 15.708C4.41336 15.708 4.02269 15.6707 3.64403 15.5987C4.43469 18.0653 6.72803 19.8627 9.44669 19.9107C7.32003 21.5773 4.64136 22.5707 1.73203 22.5707C1.23069 22.5707 0.736026 22.5413 0.249359 22.484C2.99869 24.248 6.26269 25.2747 9.76936 25.2747C21.196 25.2747 27.4427 15.8107 27.4427 7.60268C27.4427 7.33601 27.436 7.06667 27.424 6.80001C28.6374 5.92267 29.6907 4.83068 30.5214 3.58668L30.524 3.58268Z" fill="#1DA1F2"/>
</svg>
